<?xml version="1.0" standalone="no"?>
<!DOCTYPE svg PUBLIC "-//W3C//DTD SVG 20010904//EN"
 "http://www.w3.org/TR/2001/REC-SVG-20010904/DTD/svg10.dtd">
<svg version="1.0" xmlns="http://www.w3.org/2000/svg"
 width="616.000000pt" height="616.000000pt" viewBox="0 0 616.000000 616.000000"
 preserveAspectRatio="xMidYMid meet">
<metadata>
Created by potrace 1.14, written by Peter Selinger 2001-2017
</metadata>
<g transform="translate(0.000000,616.000000) scale(0.100000,-0.100000)"
fill="#000000" stroke="none">
<path d="M2878 6156 c-1 -2 -39 -6 -83 -10 -44 -4 -107 -11 -140 -16 -33 -5
-78 -11 -99 -15 -66 -9 -256 -55 -346 -82 -47 -14 -89 -26 -95 -28 -5 -1 -17
-5 -25 -8 -8 -3 -44 -17 -80 -31 -36 -13 -78 -30 -95 -36 -16 -7 -35 -14 -42
-16 -19 -4 -323 -156 -336 -168 -7 -6 -28 -20 -47 -30 -61 -34 -276 -180 -320
-219 -14 -12 -59 -50 -100 -85 -87 -73 -276 -262 -340 -342 -25 -30 -47 -57
-51 -60 -8 -7 -138 -186 -171 -235 -97 -148 -204 -349 -268 -505 -12 -30 -28
-68 -35 -85 -35 -85 -112 -336 -129 -425 -3 -14 -7 -36 -10 -50 -49 -225 -61
-359 -60 -645 0 -186 6 -304 19 -375 1 -8 6 -40 10 -70 6 -47 24 -140 41 -215
3 -11 9 -38 14 -60 53 -238 187 -574 316 -792 24 -41 44 -76 44 -79 0 -2 7
-12 15 -21 8 -10 15 -22 14 -27 0 -5 3 -12 8 -15 5 -3 30 -38 56 -77 26 -39
56 -80 67 -92 11 -12 20 -24 20 -27 0 -7 140 -176 175 -211 11 -11 29 -31 41
-45 34 -39 163 -160 244 -228 116 -98 117 -98 147 -118 15 -9 30 -20 33 -23
15 -16 88 -65 180 -122 162 -100 276 -158 475 -243 58 -25 141 -54 210 -75 39
-12 77 -24 85 -27 19 -8 30 -11 58 -17 13 -3 32 -8 42 -11 24 -8 36 -10 155
-34 119 -24 143 -28 215 -36 30 -4 69 -8 85 -11 60 -9 502 -12 570 -3 39 4 93
11 120 14 48 5 135 19 200 30 125 23 445 115 530 154 53 23 81 35 92 37 25 5
343 168 343 176 0 4 5 8 10 8 6 0 36 16 66 35 30 19 58 35 63 35 5 0 11 4 13
8 2 5 28 25 58 46 86 59 123 86 150 109 14 12 61 52 105 89 96 81 305 292 305
308 0 6 5 8 10 5 6 -3 10 -1 10 5 0 6 6 17 13 25 66 71 196 249 273 375 95
157 234 440 234 476 0 8 4 14 10 14 5 0 9 3 8 8 -2 4 5 30 15 57 19 51 23 64
26 77 1 5 8 25 16 45 32 83 90 337 114 498 38 256 36 650 -4 900 -15 96 -52
268 -71 335 -27 96 -45 155 -51 170 -3 8 -7 21 -9 28 -14 70 -166 403 -241
530 -23 41 -43 76 -43 78 0 3 -5 10 -10 17 -6 7 -37 51 -68 99 -31 47 -67 98
-79 112 -13 14 -21 26 -18 26 3 0 -3 8 -12 18 -10 10 -27 30 -38 46 -24 33
-95 114 -152 174 -24 25 -43 46 -43 48 0 2 -11 14 -25 28 -14 14 -25 24 -25
22 0 -1 -24 20 -53 48 -85 81 -129 120 -172 151 -22 17 -42 33 -45 36 -19 23
-223 161 -340 231 -69 41 -322 168 -335 168 -3 0 -24 9 -48 19 -140 63 -445
153 -591 177 -21 3 -48 8 -60 10 -19 4 -73 12 -206 29 -47 7 -506 16 -512 11z"/>
</g>
</svg>
